<mxfile host="app.diagrams.net" modified="2022-01-28T11:57:37.975Z" agent="5.0 (Windows NT 6.1; Win64; x64) AppleWebKit/537.36 (KHTML, like Gecko) Chrome/97.0.4692.99 Safari/537.36" etag="Dvk-kqI1kIXVlsMhGzw1" version="16.4.11" type="github">
  <diagram name="门诊流程" id="74e2e168-ea6b-b213-b513-2b3c1d86103e">
    <mxGraphModel dx="1102" dy="693" grid="1" gridSize="10" guides="1" tooltips="1" connect="1" arrows="0" fold="1" page="1" pageScale="1" pageWidth="1100" pageHeight="850" background="none" math="0" shadow="0">
      <root>
        <mxCell id="0" />
        <mxCell id="1" parent="0" />
        <mxCell id="77e6c97f196da883-1" value="门诊流程" style="swimlane;html=1;childLayout=stackLayout;startSize=20;rounded=0;shadow=0;labelBackgroundColor=none;strokeWidth=1;fontFamily=Verdana;fontSize=8;align=center;" parent="1" vertex="1">
          <mxGeometry x="20" y="40" width="1070" height="810" as="geometry" />
        </mxCell>
        <mxCell id="77e6c97f196da883-2" value="挂号处" style="swimlane;html=1;startSize=20;" parent="77e6c97f196da883-1" vertex="1">
          <mxGeometry y="20" width="160" height="790" as="geometry" />
        </mxCell>
        <mxCell id="77e6c97f196da883-8" value="就绪" style="rounded=1;whiteSpace=wrap;html=1;shadow=0;labelBackgroundColor=none;strokeWidth=1;fontFamily=Verdana;fontSize=8;align=center;" parent="77e6c97f196da883-2" vertex="1">
          <mxGeometry x="10" y="30" width="40" height="20" as="geometry" />
        </mxCell>
        <mxCell id="UglWNj6WMgh7vFzN11DF-1" value="客户" style="shape=umlActor;verticalLabelPosition=bottom;verticalAlign=top;html=1;outlineConnect=0;" parent="77e6c97f196da883-2" vertex="1">
          <mxGeometry x="130" y="25" width="20" height="30" as="geometry" />
        </mxCell>
        <mxCell id="UglWNj6WMgh7vFzN11DF-4" value="" style="endArrow=classic;html=1;rounded=0;exitX=1;exitY=0.5;exitDx=0;exitDy=0;" parent="77e6c97f196da883-2" source="77e6c97f196da883-8" edge="1">
          <mxGeometry width="50" height="50" relative="1" as="geometry">
            <mxPoint x="55" y="40" as="sourcePoint" />
            <mxPoint x="120" y="40" as="targetPoint" />
          </mxGeometry>
        </mxCell>
        <mxCell id="UglWNj6WMgh7vFzN11DF-18" style="edgeStyle=orthogonalEdgeStyle;rounded=0;orthogonalLoop=1;jettySize=auto;html=1;exitX=0.5;exitY=1;exitDx=0;exitDy=0;entryX=0.5;entryY=0;entryDx=0;entryDy=0;startArrow=none;" parent="77e6c97f196da883-2" target="UglWNj6WMgh7vFzN11DF-15" edge="1">
          <mxGeometry relative="1" as="geometry">
            <mxPoint x="80" y="175" as="sourcePoint" />
          </mxGeometry>
        </mxCell>
        <mxCell id="UglWNj6WMgh7vFzN11DF-25" style="edgeStyle=orthogonalEdgeStyle;rounded=0;orthogonalLoop=1;jettySize=auto;html=1;exitX=0;exitY=0.5;exitDx=0;exitDy=0;entryX=0;entryY=0.5;entryDx=0;entryDy=0;" parent="77e6c97f196da883-2" source="UglWNj6WMgh7vFzN11DF-11" target="UglWNj6WMgh7vFzN11DF-23" edge="1">
          <mxGeometry relative="1" as="geometry" />
        </mxCell>
        <mxCell id="UglWNj6WMgh7vFzN11DF-11" value="是否登记" style="rhombus;whiteSpace=wrap;html=1;" parent="77e6c97f196da883-2" vertex="1">
          <mxGeometry x="30" y="90" width="100" height="50" as="geometry" />
        </mxCell>
        <mxCell id="UglWNj6WMgh7vFzN11DF-13" value="" style="endArrow=classic;html=1;rounded=0;entryX=0.5;entryY=0;entryDx=0;entryDy=0;" parent="77e6c97f196da883-2" target="UglWNj6WMgh7vFzN11DF-11" edge="1">
          <mxGeometry relative="1" as="geometry">
            <mxPoint x="125" y="70" as="sourcePoint" />
            <mxPoint x="60" y="90" as="targetPoint" />
            <Array as="points">
              <mxPoint x="80" y="70" />
            </Array>
          </mxGeometry>
        </mxCell>
        <mxCell id="UglWNj6WMgh7vFzN11DF-14" value="看病" style="edgeLabel;resizable=0;html=1;align=center;verticalAlign=middle;" parent="UglWNj6WMgh7vFzN11DF-13" connectable="0" vertex="1">
          <mxGeometry relative="1" as="geometry">
            <mxPoint x="8" as="offset" />
          </mxGeometry>
        </mxCell>
        <mxCell id="UglWNj6WMgh7vFzN11DF-24" style="edgeStyle=orthogonalEdgeStyle;rounded=0;orthogonalLoop=1;jettySize=auto;html=1;exitX=0.5;exitY=1;exitDx=0;exitDy=0;entryX=0.5;entryY=0;entryDx=0;entryDy=0;" parent="77e6c97f196da883-2" source="UglWNj6WMgh7vFzN11DF-15" target="UglWNj6WMgh7vFzN11DF-23" edge="1">
          <mxGeometry relative="1" as="geometry" />
        </mxCell>
        <mxCell id="UglWNj6WMgh7vFzN11DF-15" value="登记" style="rounded=0;whiteSpace=wrap;html=1;" parent="77e6c97f196da883-2" vertex="1">
          <mxGeometry x="60" y="170" width="40" height="20" as="geometry" />
        </mxCell>
        <mxCell id="UglWNj6WMgh7vFzN11DF-20" value="" style="edgeStyle=orthogonalEdgeStyle;rounded=0;orthogonalLoop=1;jettySize=auto;html=1;exitX=0.5;exitY=1;exitDx=0;exitDy=0;endArrow=none;" parent="77e6c97f196da883-2" source="UglWNj6WMgh7vFzN11DF-11" edge="1">
          <mxGeometry relative="1" as="geometry">
            <mxPoint x="150" y="210" as="sourcePoint" />
            <mxPoint x="80" y="180" as="targetPoint" />
          </mxGeometry>
        </mxCell>
        <mxCell id="UglWNj6WMgh7vFzN11DF-21" value="未登记" style="text;html=1;strokeColor=none;fillColor=none;align=center;verticalAlign=middle;whiteSpace=wrap;rounded=0;" parent="77e6c97f196da883-2" vertex="1">
          <mxGeometry x="70" y="150" width="60" height="10" as="geometry" />
        </mxCell>
        <mxCell id="UglWNj6WMgh7vFzN11DF-23" value="挂号" style="rounded=0;whiteSpace=wrap;html=1;" parent="77e6c97f196da883-2" vertex="1">
          <mxGeometry x="60" y="210" width="40" height="20" as="geometry" />
        </mxCell>
        <mxCell id="g6Ao_kR4iJN2bcO8BJTg-80" style="edgeStyle=orthogonalEdgeStyle;rounded=0;orthogonalLoop=1;jettySize=auto;html=1;exitX=1;exitY=1;exitDx=0;exitDy=0;exitPerimeter=0;entryX=1.014;entryY=0.66;entryDx=0;entryDy=0;entryPerimeter=0;" edge="1" parent="77e6c97f196da883-2" source="g6Ao_kR4iJN2bcO8BJTg-77" target="g6Ao_kR4iJN2bcO8BJTg-78">
          <mxGeometry relative="1" as="geometry" />
        </mxCell>
        <mxCell id="g6Ao_kR4iJN2bcO8BJTg-77" value="客户" style="shape=umlActor;verticalLabelPosition=bottom;verticalAlign=top;html=1;outlineConnect=0;" vertex="1" parent="77e6c97f196da883-2">
          <mxGeometry x="120" y="690" width="20" height="40" as="geometry" />
        </mxCell>
        <mxCell id="g6Ao_kR4iJN2bcO8BJTg-78" value="终结流程" style="ellipse;whiteSpace=wrap;html=1;" vertex="1" parent="77e6c97f196da883-2">
          <mxGeometry x="10" y="730" width="70" height="50" as="geometry" />
        </mxCell>
        <mxCell id="77e6c97f196da883-3" value="护士站" style="swimlane;html=1;startSize=20;" parent="77e6c97f196da883-1" vertex="1">
          <mxGeometry x="160" y="20" width="150" height="790" as="geometry" />
        </mxCell>
        <mxCell id="g6Ao_kR4iJN2bcO8BJTg-4" style="edgeStyle=orthogonalEdgeStyle;rounded=0;orthogonalLoop=1;jettySize=auto;html=1;exitX=0.5;exitY=1;exitDx=0;exitDy=0;entryX=0.5;entryY=0;entryDx=0;entryDy=0;" edge="1" parent="77e6c97f196da883-3" source="g6Ao_kR4iJN2bcO8BJTg-1" target="g6Ao_kR4iJN2bcO8BJTg-3">
          <mxGeometry relative="1" as="geometry" />
        </mxCell>
        <mxCell id="g6Ao_kR4iJN2bcO8BJTg-1" value="医生是否满号" style="rhombus;whiteSpace=wrap;html=1;" vertex="1" parent="77e6c97f196da883-3">
          <mxGeometry x="10" y="80" width="130" height="80" as="geometry" />
        </mxCell>
        <mxCell id="g6Ao_kR4iJN2bcO8BJTg-3" value="分诊" style="rounded=0;whiteSpace=wrap;html=1;" vertex="1" parent="77e6c97f196da883-3">
          <mxGeometry x="52.5" y="210" width="45" height="20" as="geometry" />
        </mxCell>
        <mxCell id="g6Ao_kR4iJN2bcO8BJTg-71" value="是否有过敏药物&lt;br&gt;导致不能用药" style="rhombus;whiteSpace=wrap;html=1;" vertex="1" parent="77e6c97f196da883-3">
          <mxGeometry y="510" width="120" height="80" as="geometry" />
        </mxCell>
        <mxCell id="g6Ao_kR4iJN2bcO8BJTg-76" style="edgeStyle=orthogonalEdgeStyle;rounded=0;orthogonalLoop=1;jettySize=auto;html=1;exitX=0.5;exitY=0;exitDx=0;exitDy=0;entryX=0.5;entryY=1;entryDx=0;entryDy=0;" edge="1" parent="77e6c97f196da883-3" source="g6Ao_kR4iJN2bcO8BJTg-74" target="g6Ao_kR4iJN2bcO8BJTg-71">
          <mxGeometry relative="1" as="geometry" />
        </mxCell>
        <mxCell id="g6Ao_kR4iJN2bcO8BJTg-74" value="执行注射" style="whiteSpace=wrap;html=1;" vertex="1" parent="77e6c97f196da883-3">
          <mxGeometry x="30" y="640" width="60" height="20" as="geometry" />
        </mxCell>
        <mxCell id="77e6c97f196da883-4" value="医生站" style="swimlane;html=1;startSize=20;" parent="77e6c97f196da883-1" vertex="1">
          <mxGeometry x="310" y="20" width="160" height="790" as="geometry" />
        </mxCell>
        <mxCell id="g6Ao_kR4iJN2bcO8BJTg-5" value="就诊" style="rounded=0;whiteSpace=wrap;html=1;" vertex="1" parent="77e6c97f196da883-4">
          <mxGeometry x="50" y="210" width="40" height="20" as="geometry" />
        </mxCell>
        <mxCell id="g6Ao_kR4iJN2bcO8BJTg-69" value="签字确认" style="whiteSpace=wrap;html=1;" vertex="1" parent="77e6c97f196da883-4">
          <mxGeometry x="70" y="535" width="80" height="30" as="geometry" />
        </mxCell>
        <mxCell id="g6Ao_kR4iJN2bcO8BJTg-73" value="办理退药" style="text;html=1;align=center;verticalAlign=middle;resizable=0;points=[];autosize=1;strokeColor=none;fillColor=none;" vertex="1" parent="77e6c97f196da883-4">
          <mxGeometry y="530" width="60" height="20" as="geometry" />
        </mxCell>
        <mxCell id="77e6c97f196da883-5" value="收费处" style="swimlane;html=1;startSize=20;" parent="77e6c97f196da883-1" vertex="1">
          <mxGeometry x="470" y="20" width="170" height="790" as="geometry" />
        </mxCell>
        <mxCell id="g6Ao_kR4iJN2bcO8BJTg-12" style="edgeStyle=orthogonalEdgeStyle;rounded=0;orthogonalLoop=1;jettySize=auto;html=1;exitX=1;exitY=0.5;exitDx=0;exitDy=0;" edge="1" parent="77e6c97f196da883-5" source="g6Ao_kR4iJN2bcO8BJTg-8" target="g6Ao_kR4iJN2bcO8BJTg-10">
          <mxGeometry relative="1" as="geometry" />
        </mxCell>
        <mxCell id="g6Ao_kR4iJN2bcO8BJTg-16" style="edgeStyle=orthogonalEdgeStyle;rounded=0;orthogonalLoop=1;jettySize=auto;html=1;exitX=0.5;exitY=1;exitDx=0;exitDy=0;entryX=0.5;entryY=0;entryDx=0;entryDy=0;" edge="1" parent="77e6c97f196da883-5" source="g6Ao_kR4iJN2bcO8BJTg-8" target="g6Ao_kR4iJN2bcO8BJTg-11">
          <mxGeometry relative="1" as="geometry" />
        </mxCell>
        <mxCell id="g6Ao_kR4iJN2bcO8BJTg-8" value="是否医保" style="rhombus;whiteSpace=wrap;html=1;" vertex="1" parent="77e6c97f196da883-5">
          <mxGeometry x="15" y="195" width="90" height="50" as="geometry" />
        </mxCell>
        <mxCell id="g6Ao_kR4iJN2bcO8BJTg-13" style="edgeStyle=orthogonalEdgeStyle;rounded=0;orthogonalLoop=1;jettySize=auto;html=1;exitX=0.5;exitY=1;exitDx=0;exitDy=0;entryX=1;entryY=0.5;entryDx=0;entryDy=0;" edge="1" parent="77e6c97f196da883-5" source="g6Ao_kR4iJN2bcO8BJTg-10" target="g6Ao_kR4iJN2bcO8BJTg-11">
          <mxGeometry relative="1" as="geometry" />
        </mxCell>
        <mxCell id="g6Ao_kR4iJN2bcO8BJTg-10" value="医保结算" style="rounded=0;whiteSpace=wrap;html=1;" vertex="1" parent="77e6c97f196da883-5">
          <mxGeometry x="90" y="260" width="60" height="25" as="geometry" />
        </mxCell>
        <mxCell id="g6Ao_kR4iJN2bcO8BJTg-23" style="edgeStyle=orthogonalEdgeStyle;rounded=0;orthogonalLoop=1;jettySize=auto;html=1;exitX=0.5;exitY=1;exitDx=0;exitDy=0;entryX=0.5;entryY=0;entryDx=0;entryDy=0;" edge="1" parent="77e6c97f196da883-5" source="g6Ao_kR4iJN2bcO8BJTg-11" target="g6Ao_kR4iJN2bcO8BJTg-22">
          <mxGeometry relative="1" as="geometry" />
        </mxCell>
        <mxCell id="g6Ao_kR4iJN2bcO8BJTg-11" value="结算" style="whiteSpace=wrap;html=1;" vertex="1" parent="77e6c97f196da883-5">
          <mxGeometry x="35" y="295" width="50" height="20" as="geometry" />
        </mxCell>
        <mxCell id="g6Ao_kR4iJN2bcO8BJTg-17" value="是" style="text;html=1;strokeColor=none;fillColor=none;align=center;verticalAlign=middle;whiteSpace=wrap;rounded=0;" vertex="1" parent="77e6c97f196da883-5">
          <mxGeometry x="105" y="230" width="60" height="30" as="geometry" />
        </mxCell>
        <mxCell id="g6Ao_kR4iJN2bcO8BJTg-21" value="否" style="text;html=1;strokeColor=none;fillColor=none;align=center;verticalAlign=middle;whiteSpace=wrap;rounded=0;" vertex="1" parent="77e6c97f196da883-5">
          <mxGeometry x="35" y="260" width="30" height="15" as="geometry" />
        </mxCell>
        <mxCell id="g6Ao_kR4iJN2bcO8BJTg-22" value="治疗项目" style="rhombus;whiteSpace=wrap;html=1;" vertex="1" parent="77e6c97f196da883-5">
          <mxGeometry x="20" y="360" width="95" height="50" as="geometry" />
        </mxCell>
        <mxCell id="g6Ao_kR4iJN2bcO8BJTg-66" value="退费" style="whiteSpace=wrap;html=1;" vertex="1" parent="77e6c97f196da883-5">
          <mxGeometry x="45" y="590" width="60" height="30" as="geometry" />
        </mxCell>
        <mxCell id="77e6c97f196da883-6" value="药房" style="swimlane;html=1;startSize=20;" parent="77e6c97f196da883-1" vertex="1">
          <mxGeometry x="640" y="20" width="170" height="790" as="geometry" />
        </mxCell>
        <mxCell id="g6Ao_kR4iJN2bcO8BJTg-38" value="放射项目" style="text;html=1;strokeColor=none;fillColor=none;align=center;verticalAlign=middle;whiteSpace=wrap;rounded=0;" vertex="1" parent="77e6c97f196da883-6">
          <mxGeometry x="60" y="245" width="80" height="20" as="geometry" />
        </mxCell>
        <mxCell id="g6Ao_kR4iJN2bcO8BJTg-39" value="B超项目" style="text;html=1;strokeColor=none;fillColor=none;align=center;verticalAlign=middle;whiteSpace=wrap;rounded=0;" vertex="1" parent="77e6c97f196da883-6">
          <mxGeometry x="60" y="305" width="80" height="20" as="geometry" />
        </mxCell>
        <mxCell id="g6Ao_kR4iJN2bcO8BJTg-40" value="手术项目" style="text;html=1;strokeColor=none;fillColor=none;align=center;verticalAlign=middle;whiteSpace=wrap;rounded=0;" vertex="1" parent="77e6c97f196da883-6">
          <mxGeometry x="60" y="365" width="80" height="20" as="geometry" />
        </mxCell>
        <mxCell id="g6Ao_kR4iJN2bcO8BJTg-41" value="检验项目" style="text;html=1;strokeColor=none;fillColor=none;align=center;verticalAlign=middle;whiteSpace=wrap;rounded=0;" vertex="1" parent="77e6c97f196da883-6">
          <mxGeometry x="60" y="425" width="80" height="20" as="geometry" />
        </mxCell>
        <mxCell id="g6Ao_kR4iJN2bcO8BJTg-42" value="检查项目" style="text;html=1;strokeColor=none;fillColor=none;align=center;verticalAlign=middle;whiteSpace=wrap;rounded=0;" vertex="1" parent="77e6c97f196da883-6">
          <mxGeometry x="60" y="480" width="80" height="20" as="geometry" />
        </mxCell>
        <mxCell id="g6Ao_kR4iJN2bcO8BJTg-52" style="edgeStyle=orthogonalEdgeStyle;rounded=0;orthogonalLoop=1;jettySize=auto;html=1;exitX=0.5;exitY=1;exitDx=0;exitDy=0;entryX=0.5;entryY=0;entryDx=0;entryDy=0;" edge="1" parent="77e6c97f196da883-6" source="g6Ao_kR4iJN2bcO8BJTg-50" target="g6Ao_kR4iJN2bcO8BJTg-51">
          <mxGeometry relative="1" as="geometry" />
        </mxCell>
        <mxCell id="g6Ao_kR4iJN2bcO8BJTg-50" value="发药" style="whiteSpace=wrap;html=1;" vertex="1" parent="77e6c97f196da883-6">
          <mxGeometry x="80" y="520" width="40" height="20" as="geometry" />
        </mxCell>
        <mxCell id="g6Ao_kR4iJN2bcO8BJTg-51" value="是否注射剂" style="rhombus;whiteSpace=wrap;html=1;" vertex="1" parent="77e6c97f196da883-6">
          <mxGeometry x="50" y="625" width="100" height="50" as="geometry" />
        </mxCell>
        <mxCell id="g6Ao_kR4iJN2bcO8BJTg-64" value="退药" style="whiteSpace=wrap;html=1;" vertex="1" parent="77e6c97f196da883-6">
          <mxGeometry x="10" y="540" width="50" height="20" as="geometry" />
        </mxCell>
        <mxCell id="77e6c97f196da883-7" value="辅助科室" style="swimlane;html=1;startSize=20;" parent="77e6c97f196da883-1" vertex="1">
          <mxGeometry x="810" y="20" width="230" height="790" as="geometry" />
        </mxCell>
        <mxCell id="g6Ao_kR4iJN2bcO8BJTg-57" style="edgeStyle=orthogonalEdgeStyle;rounded=0;orthogonalLoop=1;jettySize=auto;html=1;exitX=1;exitY=0.5;exitDx=0;exitDy=0;entryX=1;entryY=0.5;entryDx=0;entryDy=0;" edge="1" parent="77e6c97f196da883-7" source="g6Ao_kR4iJN2bcO8BJTg-24" target="g6Ao_kR4iJN2bcO8BJTg-54">
          <mxGeometry relative="1" as="geometry" />
        </mxCell>
        <mxCell id="g6Ao_kR4iJN2bcO8BJTg-24" value="B超室" style="whiteSpace=wrap;html=1;" vertex="1" parent="77e6c97f196da883-7">
          <mxGeometry x="45" y="315" width="100" height="20" as="geometry" />
        </mxCell>
        <mxCell id="g6Ao_kR4iJN2bcO8BJTg-59" style="edgeStyle=orthogonalEdgeStyle;rounded=0;orthogonalLoop=1;jettySize=auto;html=1;exitX=1;exitY=0.5;exitDx=0;exitDy=0;entryX=1;entryY=0.5;entryDx=0;entryDy=0;" edge="1" parent="77e6c97f196da883-7" source="g6Ao_kR4iJN2bcO8BJTg-27" target="g6Ao_kR4iJN2bcO8BJTg-54">
          <mxGeometry relative="1" as="geometry" />
        </mxCell>
        <mxCell id="g6Ao_kR4iJN2bcO8BJTg-27" value="手术室" style="whiteSpace=wrap;html=1;" vertex="1" parent="77e6c97f196da883-7">
          <mxGeometry x="45" y="375" width="100" height="20" as="geometry" />
        </mxCell>
        <mxCell id="g6Ao_kR4iJN2bcO8BJTg-60" style="edgeStyle=orthogonalEdgeStyle;rounded=0;orthogonalLoop=1;jettySize=auto;html=1;exitX=1;exitY=0.5;exitDx=0;exitDy=0;entryX=1;entryY=0.5;entryDx=0;entryDy=0;" edge="1" parent="77e6c97f196da883-7" source="g6Ao_kR4iJN2bcO8BJTg-28" target="g6Ao_kR4iJN2bcO8BJTg-54">
          <mxGeometry relative="1" as="geometry" />
        </mxCell>
        <mxCell id="g6Ao_kR4iJN2bcO8BJTg-28" value="检验科" style="whiteSpace=wrap;html=1;" vertex="1" parent="77e6c97f196da883-7">
          <mxGeometry x="45" y="435" width="100" height="20" as="geometry" />
        </mxCell>
        <mxCell id="g6Ao_kR4iJN2bcO8BJTg-61" style="edgeStyle=orthogonalEdgeStyle;rounded=0;orthogonalLoop=1;jettySize=auto;html=1;exitX=1;exitY=0.5;exitDx=0;exitDy=0;entryX=1;entryY=0.5;entryDx=0;entryDy=0;" edge="1" parent="77e6c97f196da883-7" source="g6Ao_kR4iJN2bcO8BJTg-30" target="g6Ao_kR4iJN2bcO8BJTg-54">
          <mxGeometry relative="1" as="geometry" />
        </mxCell>
        <mxCell id="g6Ao_kR4iJN2bcO8BJTg-30" value="检查科" style="whiteSpace=wrap;html=1;" vertex="1" parent="77e6c97f196da883-7">
          <mxGeometry x="45" y="495" width="100" height="20" as="geometry" />
        </mxCell>
        <mxCell id="g6Ao_kR4iJN2bcO8BJTg-56" style="edgeStyle=orthogonalEdgeStyle;rounded=0;orthogonalLoop=1;jettySize=auto;html=1;exitX=1;exitY=0.5;exitDx=0;exitDy=0;entryX=1;entryY=0.5;entryDx=0;entryDy=0;" edge="1" parent="77e6c97f196da883-7" source="g6Ao_kR4iJN2bcO8BJTg-29" target="g6Ao_kR4iJN2bcO8BJTg-54">
          <mxGeometry relative="1" as="geometry" />
        </mxCell>
        <mxCell id="g6Ao_kR4iJN2bcO8BJTg-29" value="放射科" style="whiteSpace=wrap;html=1;" vertex="1" parent="77e6c97f196da883-7">
          <mxGeometry x="45" y="255" width="100" height="20" as="geometry" />
        </mxCell>
        <mxCell id="g6Ao_kR4iJN2bcO8BJTg-31" style="edgeStyle=orthogonalEdgeStyle;rounded=0;orthogonalLoop=1;jettySize=auto;html=1;exitX=0.5;exitY=1;exitDx=0;exitDy=0;" edge="1" parent="77e6c97f196da883-7" source="g6Ao_kR4iJN2bcO8BJTg-24" target="g6Ao_kR4iJN2bcO8BJTg-24">
          <mxGeometry relative="1" as="geometry" />
        </mxCell>
        <mxCell id="g6Ao_kR4iJN2bcO8BJTg-94" style="edgeStyle=orthogonalEdgeStyle;rounded=0;orthogonalLoop=1;jettySize=auto;html=1;exitX=0.5;exitY=1;exitDx=0;exitDy=0;" edge="1" parent="77e6c97f196da883-7" source="g6Ao_kR4iJN2bcO8BJTg-54" target="g6Ao_kR4iJN2bcO8BJTg-62">
          <mxGeometry relative="1" as="geometry" />
        </mxCell>
        <mxCell id="g6Ao_kR4iJN2bcO8BJTg-54" value="是否有未执行&lt;br&gt;项目" style="rhombus;whiteSpace=wrap;html=1;" vertex="1" parent="77e6c97f196da883-7">
          <mxGeometry x="45" y="570" width="120" height="70" as="geometry" />
        </mxCell>
        <mxCell id="g6Ao_kR4iJN2bcO8BJTg-62" value="返回项目结果" style="whiteSpace=wrap;html=1;" vertex="1" parent="77e6c97f196da883-7">
          <mxGeometry x="57.5" y="700" width="95" height="40" as="geometry" />
        </mxCell>
        <mxCell id="g6Ao_kR4iJN2bcO8BJTg-98" value="否" style="text;html=1;strokeColor=none;fillColor=none;align=center;verticalAlign=middle;whiteSpace=wrap;rounded=0;" vertex="1" parent="77e6c97f196da883-7">
          <mxGeometry x="104.5" y="650" width="40" height="20" as="geometry" />
        </mxCell>
        <mxCell id="g6Ao_kR4iJN2bcO8BJTg-2" style="edgeStyle=orthogonalEdgeStyle;rounded=0;orthogonalLoop=1;jettySize=auto;html=1;exitX=1;exitY=0.5;exitDx=0;exitDy=0;entryX=0;entryY=0.5;entryDx=0;entryDy=0;" edge="1" parent="77e6c97f196da883-1" source="UglWNj6WMgh7vFzN11DF-23" target="g6Ao_kR4iJN2bcO8BJTg-1">
          <mxGeometry relative="1" as="geometry" />
        </mxCell>
        <mxCell id="g6Ao_kR4iJN2bcO8BJTg-6" style="edgeStyle=orthogonalEdgeStyle;rounded=0;orthogonalLoop=1;jettySize=auto;html=1;exitX=1;exitY=0.5;exitDx=0;exitDy=0;entryX=0.5;entryY=0;entryDx=0;entryDy=0;" edge="1" parent="77e6c97f196da883-1" source="g6Ao_kR4iJN2bcO8BJTg-1" target="g6Ao_kR4iJN2bcO8BJTg-5">
          <mxGeometry relative="1" as="geometry" />
        </mxCell>
        <mxCell id="g6Ao_kR4iJN2bcO8BJTg-7" style="edgeStyle=orthogonalEdgeStyle;rounded=0;orthogonalLoop=1;jettySize=auto;html=1;exitX=1;exitY=0.5;exitDx=0;exitDy=0;entryX=0;entryY=0.5;entryDx=0;entryDy=0;" edge="1" parent="77e6c97f196da883-1" source="g6Ao_kR4iJN2bcO8BJTg-3" target="g6Ao_kR4iJN2bcO8BJTg-5">
          <mxGeometry relative="1" as="geometry" />
        </mxCell>
        <mxCell id="g6Ao_kR4iJN2bcO8BJTg-43" style="edgeStyle=orthogonalEdgeStyle;rounded=0;orthogonalLoop=1;jettySize=auto;html=1;exitX=1;exitY=0.5;exitDx=0;exitDy=0;" edge="1" parent="77e6c97f196da883-1" source="g6Ao_kR4iJN2bcO8BJTg-5" target="g6Ao_kR4iJN2bcO8BJTg-8">
          <mxGeometry relative="1" as="geometry" />
        </mxCell>
        <mxCell id="g6Ao_kR4iJN2bcO8BJTg-44" style="edgeStyle=orthogonalEdgeStyle;rounded=0;orthogonalLoop=1;jettySize=auto;html=1;exitX=1;exitY=0.5;exitDx=0;exitDy=0;" edge="1" parent="77e6c97f196da883-1" source="g6Ao_kR4iJN2bcO8BJTg-22" target="g6Ao_kR4iJN2bcO8BJTg-27">
          <mxGeometry relative="1" as="geometry">
            <Array as="points">
              <mxPoint x="690" y="405" />
              <mxPoint x="690" y="405" />
            </Array>
          </mxGeometry>
        </mxCell>
        <mxCell id="g6Ao_kR4iJN2bcO8BJTg-45" style="edgeStyle=orthogonalEdgeStyle;rounded=0;orthogonalLoop=1;jettySize=auto;html=1;exitX=1;exitY=0.5;exitDx=0;exitDy=0;entryX=0;entryY=0.5;entryDx=0;entryDy=0;" edge="1" parent="77e6c97f196da883-1" source="g6Ao_kR4iJN2bcO8BJTg-22" target="g6Ao_kR4iJN2bcO8BJTg-24">
          <mxGeometry relative="1" as="geometry">
            <Array as="points">
              <mxPoint x="680" y="405" />
              <mxPoint x="680" y="345" />
            </Array>
          </mxGeometry>
        </mxCell>
        <mxCell id="g6Ao_kR4iJN2bcO8BJTg-46" style="edgeStyle=orthogonalEdgeStyle;rounded=0;orthogonalLoop=1;jettySize=auto;html=1;exitX=1;exitY=0.5;exitDx=0;exitDy=0;entryX=0;entryY=0.5;entryDx=0;entryDy=0;" edge="1" parent="77e6c97f196da883-1" source="g6Ao_kR4iJN2bcO8BJTg-22" target="g6Ao_kR4iJN2bcO8BJTg-28">
          <mxGeometry relative="1" as="geometry">
            <Array as="points">
              <mxPoint x="680" y="405" />
              <mxPoint x="680" y="465" />
            </Array>
          </mxGeometry>
        </mxCell>
        <mxCell id="g6Ao_kR4iJN2bcO8BJTg-47" style="edgeStyle=orthogonalEdgeStyle;rounded=0;orthogonalLoop=1;jettySize=auto;html=1;exitX=1;exitY=0.5;exitDx=0;exitDy=0;entryX=0;entryY=0.25;entryDx=0;entryDy=0;" edge="1" parent="77e6c97f196da883-1" source="g6Ao_kR4iJN2bcO8BJTg-22" target="g6Ao_kR4iJN2bcO8BJTg-30">
          <mxGeometry relative="1" as="geometry">
            <Array as="points">
              <mxPoint x="680" y="405" />
              <mxPoint x="680" y="520" />
            </Array>
          </mxGeometry>
        </mxCell>
        <mxCell id="g6Ao_kR4iJN2bcO8BJTg-48" style="edgeStyle=orthogonalEdgeStyle;rounded=0;orthogonalLoop=1;jettySize=auto;html=1;exitX=1;exitY=0.5;exitDx=0;exitDy=0;entryX=0;entryY=0.5;entryDx=0;entryDy=0;" edge="1" parent="77e6c97f196da883-1" source="g6Ao_kR4iJN2bcO8BJTg-22" target="g6Ao_kR4iJN2bcO8BJTg-29">
          <mxGeometry relative="1" as="geometry">
            <Array as="points">
              <mxPoint x="680" y="405" />
              <mxPoint x="680" y="285" />
            </Array>
          </mxGeometry>
        </mxCell>
        <mxCell id="g6Ao_kR4iJN2bcO8BJTg-53" style="edgeStyle=orthogonalEdgeStyle;rounded=0;orthogonalLoop=1;jettySize=auto;html=1;exitX=0.5;exitY=1;exitDx=0;exitDy=0;entryX=0;entryY=0.5;entryDx=0;entryDy=0;" edge="1" parent="77e6c97f196da883-1" source="g6Ao_kR4iJN2bcO8BJTg-22" target="g6Ao_kR4iJN2bcO8BJTg-50">
          <mxGeometry relative="1" as="geometry" />
        </mxCell>
        <mxCell id="g6Ao_kR4iJN2bcO8BJTg-67" style="edgeStyle=orthogonalEdgeStyle;rounded=0;orthogonalLoop=1;jettySize=auto;html=1;exitX=0;exitY=0.5;exitDx=0;exitDy=0;entryX=1;entryY=0.5;entryDx=0;entryDy=0;" edge="1" parent="77e6c97f196da883-1" source="g6Ao_kR4iJN2bcO8BJTg-54" target="g6Ao_kR4iJN2bcO8BJTg-66">
          <mxGeometry relative="1" as="geometry" />
        </mxCell>
        <mxCell id="g6Ao_kR4iJN2bcO8BJTg-92" value="是" style="edgeLabel;html=1;align=center;verticalAlign=middle;resizable=0;points=[];" vertex="1" connectable="0" parent="g6Ao_kR4iJN2bcO8BJTg-67">
          <mxGeometry x="-0.3071" y="2" relative="1" as="geometry">
            <mxPoint x="30" as="offset" />
          </mxGeometry>
        </mxCell>
        <mxCell id="g6Ao_kR4iJN2bcO8BJTg-68" style="edgeStyle=orthogonalEdgeStyle;rounded=0;orthogonalLoop=1;jettySize=auto;html=1;exitX=0.5;exitY=1;exitDx=0;exitDy=0;entryX=1;entryY=0.5;entryDx=0;entryDy=0;" edge="1" parent="77e6c97f196da883-1" source="g6Ao_kR4iJN2bcO8BJTg-64" target="g6Ao_kR4iJN2bcO8BJTg-66">
          <mxGeometry relative="1" as="geometry" />
        </mxCell>
        <mxCell id="g6Ao_kR4iJN2bcO8BJTg-70" style="edgeStyle=orthogonalEdgeStyle;rounded=0;orthogonalLoop=1;jettySize=auto;html=1;exitX=1;exitY=0.5;exitDx=0;exitDy=0;entryX=0;entryY=0.5;entryDx=0;entryDy=0;" edge="1" parent="77e6c97f196da883-1" source="g6Ao_kR4iJN2bcO8BJTg-69" target="g6Ao_kR4iJN2bcO8BJTg-64">
          <mxGeometry relative="1" as="geometry" />
        </mxCell>
        <mxCell id="g6Ao_kR4iJN2bcO8BJTg-72" style="edgeStyle=orthogonalEdgeStyle;rounded=0;orthogonalLoop=1;jettySize=auto;html=1;exitX=1;exitY=0.5;exitDx=0;exitDy=0;entryX=0;entryY=0.5;entryDx=0;entryDy=0;" edge="1" parent="77e6c97f196da883-1" source="g6Ao_kR4iJN2bcO8BJTg-71" target="g6Ao_kR4iJN2bcO8BJTg-69">
          <mxGeometry relative="1" as="geometry" />
        </mxCell>
        <mxCell id="g6Ao_kR4iJN2bcO8BJTg-75" style="edgeStyle=orthogonalEdgeStyle;rounded=0;orthogonalLoop=1;jettySize=auto;html=1;exitX=0;exitY=0.5;exitDx=0;exitDy=0;entryX=1;entryY=0.5;entryDx=0;entryDy=0;" edge="1" parent="77e6c97f196da883-1" source="g6Ao_kR4iJN2bcO8BJTg-51" target="g6Ao_kR4iJN2bcO8BJTg-74">
          <mxGeometry relative="1" as="geometry" />
        </mxCell>
        <mxCell id="g6Ao_kR4iJN2bcO8BJTg-91" value="有" style="edgeLabel;html=1;align=center;verticalAlign=middle;resizable=0;points=[];" vertex="1" connectable="0" parent="g6Ao_kR4iJN2bcO8BJTg-75">
          <mxGeometry x="0.3818" y="-1" relative="1" as="geometry">
            <mxPoint as="offset" />
          </mxGeometry>
        </mxCell>
        <mxCell id="g6Ao_kR4iJN2bcO8BJTg-81" style="edgeStyle=orthogonalEdgeStyle;rounded=0;orthogonalLoop=1;jettySize=auto;html=1;exitX=0;exitY=0.5;exitDx=0;exitDy=0;entryX=0.25;entryY=0.1;entryDx=0;entryDy=0;entryPerimeter=0;" edge="1" parent="77e6c97f196da883-1" source="g6Ao_kR4iJN2bcO8BJTg-74" target="g6Ao_kR4iJN2bcO8BJTg-77">
          <mxGeometry relative="1" as="geometry" />
        </mxCell>
        <mxCell id="g6Ao_kR4iJN2bcO8BJTg-82" style="edgeStyle=orthogonalEdgeStyle;rounded=0;orthogonalLoop=1;jettySize=auto;html=1;exitX=0;exitY=0.5;exitDx=0;exitDy=0;entryX=0.25;entryY=0.1;entryDx=0;entryDy=0;entryPerimeter=0;" edge="1" parent="77e6c97f196da883-1" source="g6Ao_kR4iJN2bcO8BJTg-71" target="g6Ao_kR4iJN2bcO8BJTg-77">
          <mxGeometry relative="1" as="geometry" />
        </mxCell>
        <mxCell id="g6Ao_kR4iJN2bcO8BJTg-86" style="edgeStyle=orthogonalEdgeStyle;rounded=0;orthogonalLoop=1;jettySize=auto;html=1;exitX=0.5;exitY=1;exitDx=0;exitDy=0;entryX=1;entryY=0.3333333333333333;entryDx=0;entryDy=0;entryPerimeter=0;" edge="1" parent="77e6c97f196da883-1" source="g6Ao_kR4iJN2bcO8BJTg-66" target="g6Ao_kR4iJN2bcO8BJTg-77">
          <mxGeometry relative="1" as="geometry" />
        </mxCell>
        <mxCell id="g6Ao_kR4iJN2bcO8BJTg-89" value="全退" style="edgeLabel;html=1;align=center;verticalAlign=middle;resizable=0;points=[];" vertex="1" connectable="0" parent="g6Ao_kR4iJN2bcO8BJTg-86">
          <mxGeometry x="-0.7911" y="2" relative="1" as="geometry">
            <mxPoint as="offset" />
          </mxGeometry>
        </mxCell>
        <mxCell id="g6Ao_kR4iJN2bcO8BJTg-88" style="edgeStyle=orthogonalEdgeStyle;rounded=0;orthogonalLoop=1;jettySize=auto;html=1;exitX=0.5;exitY=1;exitDx=0;exitDy=0;entryX=1;entryY=0.3333333333333333;entryDx=0;entryDy=0;entryPerimeter=0;" edge="1" parent="77e6c97f196da883-1" source="g6Ao_kR4iJN2bcO8BJTg-51" target="g6Ao_kR4iJN2bcO8BJTg-77">
          <mxGeometry relative="1" as="geometry" />
        </mxCell>
        <mxCell id="g6Ao_kR4iJN2bcO8BJTg-90" value="无" style="edgeLabel;html=1;align=center;verticalAlign=middle;resizable=0;points=[];" vertex="1" connectable="0" parent="g6Ao_kR4iJN2bcO8BJTg-88">
          <mxGeometry x="-0.7539" relative="1" as="geometry">
            <mxPoint as="offset" />
          </mxGeometry>
        </mxCell>
        <mxCell id="g6Ao_kR4iJN2bcO8BJTg-93" style="edgeStyle=orthogonalEdgeStyle;rounded=0;orthogonalLoop=1;jettySize=auto;html=1;exitX=1;exitY=0.5;exitDx=0;exitDy=0;entryX=0.5;entryY=0;entryDx=0;entryDy=0;" edge="1" parent="77e6c97f196da883-1" source="g6Ao_kR4iJN2bcO8BJTg-62" target="g6Ao_kR4iJN2bcO8BJTg-5">
          <mxGeometry relative="1" as="geometry">
            <Array as="points">
              <mxPoint x="1020" y="740" />
              <mxPoint x="1020" y="210" />
              <mxPoint x="380" y="210" />
            </Array>
          </mxGeometry>
        </mxCell>
      </root>
    </mxGraphModel>
  </diagram>
</mxfile>
